<mxfile host="app.diagrams.net" agent="Mozilla/5.0 (Windows NT 10.0; Win64; x64) AppleWebKit/537.36 (KHTML, like Gecko) Chrome/129.0.0.0 Safari/537.36" version="24.7.17">
  <diagram name="Halaman-1" id="lKF0-cI4pQnBQl3EhiKu">
    <mxGraphModel dx="3225" dy="1518" grid="0" gridSize="10" guides="1" tooltips="1" connect="1" arrows="1" fold="1" page="0" pageScale="1" pageWidth="827" pageHeight="1169" math="0" shadow="0">
      <root>
        <mxCell id="0" />
        <mxCell id="1" parent="0" />
        <mxCell id="hOLa1W9hkMqsPNJhcazM-1" value="Mulai" style="whiteSpace=wrap;strokeWidth=2;" vertex="1" parent="1">
          <mxGeometry x="1235" y="20" width="99" height="48" as="geometry" />
        </mxCell>
        <mxCell id="hOLa1W9hkMqsPNJhcazM-2" value="Registrasi" style="whiteSpace=wrap;strokeWidth=2;" vertex="1" parent="1">
          <mxGeometry x="1351" y="118" width="128" height="48" as="geometry" />
        </mxCell>
        <mxCell id="hOLa1W9hkMqsPNJhcazM-3" value="Username sudah terdaftar?" style="rhombus;strokeWidth=2;whiteSpace=wrap;" vertex="1" parent="1">
          <mxGeometry x="1294" y="239" width="242" height="242" as="geometry" />
        </mxCell>
        <mxCell id="hOLa1W9hkMqsPNJhcazM-4" value="Set Role dan Simpan User" style="whiteSpace=wrap;strokeWidth=2;" vertex="1" parent="1">
          <mxGeometry x="1293" y="554" width="243" height="48" as="geometry" />
        </mxCell>
        <mxCell id="hOLa1W9hkMqsPNJhcazM-5" value="Login" style="whiteSpace=wrap;strokeWidth=2;" vertex="1" parent="1">
          <mxGeometry x="1366" y="652" width="98" height="48" as="geometry" />
        </mxCell>
        <mxCell id="hOLa1W9hkMqsPNJhcazM-6" value="Login Valid?" style="rhombus;strokeWidth=2;whiteSpace=wrap;" vertex="1" parent="1">
          <mxGeometry x="1349" y="773" width="132" height="132" as="geometry" />
        </mxCell>
        <mxCell id="hOLa1W9hkMqsPNJhcazM-7" value="Menu Utama" style="whiteSpace=wrap;strokeWidth=2;" vertex="1" parent="1">
          <mxGeometry x="1340" y="978" width="150" height="48" as="geometry" />
        </mxCell>
        <mxCell id="hOLa1W9hkMqsPNJhcazM-8" value="Pilih Menu" style="rhombus;strokeWidth=2;whiteSpace=wrap;" vertex="1" parent="1">
          <mxGeometry x="739" y="1076" width="122" height="122" as="geometry" />
        </mxCell>
        <mxCell id="hOLa1W9hkMqsPNJhcazM-9" value="Tambah Pembelian" style="whiteSpace=wrap;strokeWidth=2;" vertex="1" parent="1">
          <mxGeometry x="75" y="1270" width="195" height="48" as="geometry" />
        </mxCell>
        <mxCell id="hOLa1W9hkMqsPNJhcazM-10" value="Tampilkan Pembelian" style="whiteSpace=wrap;strokeWidth=2;" vertex="1" parent="1">
          <mxGeometry x="320" y="1270" width="212" height="48" as="geometry" />
        </mxCell>
        <mxCell id="hOLa1W9hkMqsPNJhcazM-11" value="Update Pembelian" style="whiteSpace=wrap;strokeWidth=2;" vertex="1" parent="1">
          <mxGeometry x="954" y="1270" width="191" height="48" as="geometry" />
        </mxCell>
        <mxCell id="hOLa1W9hkMqsPNJhcazM-12" value="Hapus Pembelian" style="whiteSpace=wrap;strokeWidth=2;" vertex="1" parent="1">
          <mxGeometry x="1641" y="1270" width="182" height="48" as="geometry" />
        </mxCell>
        <mxCell id="hOLa1W9hkMqsPNJhcazM-13" value="Logout" style="whiteSpace=wrap;strokeWidth=2;" vertex="1" parent="1">
          <mxGeometry x="745" y="1270" width="108" height="48" as="geometry" />
        </mxCell>
        <mxCell id="hOLa1W9hkMqsPNJhcazM-14" value="Hanya admin?" style="rhombus;strokeWidth=2;whiteSpace=wrap;" vertex="1" parent="1">
          <mxGeometry x="98" y="1369" width="147" height="147" as="geometry" />
        </mxCell>
        <mxCell id="hOLa1W9hkMqsPNJhcazM-15" value="Input Item, Quantity, Price" style="whiteSpace=wrap;strokeWidth=2;" vertex="1" parent="1">
          <mxGeometry x="20" y="1588" width="252" height="48" as="geometry" />
        </mxCell>
        <mxCell id="hOLa1W9hkMqsPNJhcazM-16" value="Tambahkan Pembelian" style="whiteSpace=wrap;strokeWidth=2;" vertex="1" parent="1">
          <mxGeometry x="376" y="1733" width="220" height="48" as="geometry" />
        </mxCell>
        <mxCell id="hOLa1W9hkMqsPNJhcazM-17" value="Pesan Error" style="whiteSpace=wrap;strokeWidth=2;" vertex="1" parent="1">
          <mxGeometry x="526" y="1588" width="142" height="48" as="geometry" />
        </mxCell>
        <mxCell id="hOLa1W9hkMqsPNJhcazM-18" value="Tampilkan Semua Pembelian" style="whiteSpace=wrap;strokeWidth=2;" vertex="1" parent="1">
          <mxGeometry x="404" y="1409" width="185" height="66" as="geometry" />
        </mxCell>
        <mxCell id="hOLa1W9hkMqsPNJhcazM-19" value="Hanya admin?" style="rhombus;strokeWidth=2;whiteSpace=wrap;" vertex="1" parent="1">
          <mxGeometry x="976" y="1369" width="147" height="147" as="geometry" />
        </mxCell>
        <mxCell id="hOLa1W9hkMqsPNJhcazM-20" value="Input Nomor Pembelian" style="whiteSpace=wrap;strokeWidth=2;" vertex="1" parent="1">
          <mxGeometry x="1236" y="1588" width="228" height="48" as="geometry" />
        </mxCell>
        <mxCell id="hOLa1W9hkMqsPNJhcazM-21" value="Nomor Valid?" style="rhombus;strokeWidth=2;whiteSpace=wrap;" vertex="1" parent="1">
          <mxGeometry x="1279" y="1687" width="141" height="141" as="geometry" />
        </mxCell>
        <mxCell id="hOLa1W9hkMqsPNJhcazM-22" value="Input Data Baru" style="whiteSpace=wrap;strokeWidth=2;" vertex="1" parent="1">
          <mxGeometry x="1237" y="1900" width="172" height="48" as="geometry" />
        </mxCell>
        <mxCell id="hOLa1W9hkMqsPNJhcazM-23" value="Update Pembelian" style="whiteSpace=wrap;strokeWidth=2;" vertex="1" parent="1">
          <mxGeometry x="1806" y="1999" width="191" height="48" as="geometry" />
        </mxCell>
        <mxCell id="hOLa1W9hkMqsPNJhcazM-24" value="Pesan Error" style="whiteSpace=wrap;strokeWidth=2;" vertex="1" parent="1">
          <mxGeometry x="1755" y="1900" width="142" height="48" as="geometry" />
        </mxCell>
        <mxCell id="hOLa1W9hkMqsPNJhcazM-25" value="Pesan Error" style="whiteSpace=wrap;strokeWidth=2;" vertex="1" parent="1">
          <mxGeometry x="1044" y="1588" width="142" height="48" as="geometry" />
        </mxCell>
        <mxCell id="hOLa1W9hkMqsPNJhcazM-26" value="Hanya admin?" style="rhombus;strokeWidth=2;whiteSpace=wrap;" vertex="1" parent="1">
          <mxGeometry x="1658" y="1369" width="147" height="147" as="geometry" />
        </mxCell>
        <mxCell id="hOLa1W9hkMqsPNJhcazM-27" value="Input Nomor Pembelian" style="whiteSpace=wrap;strokeWidth=2;" vertex="1" parent="1">
          <mxGeometry x="1893" y="1588" width="228" height="48" as="geometry" />
        </mxCell>
        <mxCell id="hOLa1W9hkMqsPNJhcazM-28" value="Nomor Valid?" style="rhombus;strokeWidth=2;whiteSpace=wrap;" vertex="1" parent="1">
          <mxGeometry x="1936" y="1687" width="141" height="141" as="geometry" />
        </mxCell>
        <mxCell id="hOLa1W9hkMqsPNJhcazM-29" value="Hapus Pembelian" style="whiteSpace=wrap;strokeWidth=2;" vertex="1" parent="1">
          <mxGeometry x="1990" y="1900" width="182" height="48" as="geometry" />
        </mxCell>
        <mxCell id="hOLa1W9hkMqsPNJhcazM-30" value="Pesan Error" style="whiteSpace=wrap;strokeWidth=2;" vertex="1" parent="1">
          <mxGeometry x="2222" y="1900" width="142" height="48" as="geometry" />
        </mxCell>
        <mxCell id="hOLa1W9hkMqsPNJhcazM-31" value="Pesan Error" style="whiteSpace=wrap;strokeWidth=2;" vertex="1" parent="1">
          <mxGeometry x="1514" y="1588" width="142" height="48" as="geometry" />
        </mxCell>
        <mxCell id="hOLa1W9hkMqsPNJhcazM-32" value="Logout" style="whiteSpace=wrap;strokeWidth=2;" vertex="1" parent="1">
          <mxGeometry x="793" y="1418" width="108" height="48" as="geometry" />
        </mxCell>
        <mxCell id="hOLa1W9hkMqsPNJhcazM-33" value="" style="curved=1;startArrow=none;endArrow=block;exitX=1;exitY=0.89;entryX=0.5;entryY=0.01;rounded=0;fontSize=12;startSize=8;endSize=8;" edge="1" parent="1" source="hOLa1W9hkMqsPNJhcazM-1" target="hOLa1W9hkMqsPNJhcazM-2">
          <mxGeometry relative="1" as="geometry">
            <Array as="points">
              <mxPoint x="1415" y="93" />
            </Array>
          </mxGeometry>
        </mxCell>
        <mxCell id="hOLa1W9hkMqsPNJhcazM-34" value="" style="curved=1;startArrow=none;endArrow=block;exitX=0;exitY=0.73;entryX=0;entryY=0.29;rounded=0;fontSize=12;startSize=8;endSize=8;" edge="1" parent="1" source="hOLa1W9hkMqsPNJhcazM-2" target="hOLa1W9hkMqsPNJhcazM-3">
          <mxGeometry relative="1" as="geometry">
            <Array as="points">
              <mxPoint x="1036" y="203" />
            </Array>
          </mxGeometry>
        </mxCell>
        <mxCell id="hOLa1W9hkMqsPNJhcazM-35" value="Ya" style="curved=1;startArrow=none;endArrow=block;exitX=0.55;exitY=0;entryX=0.55;entryY=1.02;rounded=0;fontSize=12;startSize=8;endSize=8;" edge="1" parent="1" source="hOLa1W9hkMqsPNJhcazM-3" target="hOLa1W9hkMqsPNJhcazM-2">
          <mxGeometry relative="1" as="geometry">
            <Array as="points">
              <mxPoint x="1430" y="203" />
            </Array>
          </mxGeometry>
        </mxCell>
        <mxCell id="hOLa1W9hkMqsPNJhcazM-36" value="Tidak" style="curved=1;startArrow=none;endArrow=block;exitX=0.5;exitY=1;entryX=0.5;entryY=0;rounded=0;fontSize=12;startSize=8;endSize=8;" edge="1" parent="1" source="hOLa1W9hkMqsPNJhcazM-3" target="hOLa1W9hkMqsPNJhcazM-4">
          <mxGeometry relative="1" as="geometry">
            <Array as="points" />
          </mxGeometry>
        </mxCell>
        <mxCell id="hOLa1W9hkMqsPNJhcazM-37" value="" style="curved=1;startArrow=none;endArrow=block;exitX=0.5;exitY=1;entryX=0.5;entryY=0;rounded=0;fontSize=12;startSize=8;endSize=8;" edge="1" parent="1" source="hOLa1W9hkMqsPNJhcazM-4" target="hOLa1W9hkMqsPNJhcazM-5">
          <mxGeometry relative="1" as="geometry">
            <Array as="points" />
          </mxGeometry>
        </mxCell>
        <mxCell id="hOLa1W9hkMqsPNJhcazM-38" value="" style="curved=1;startArrow=none;endArrow=block;exitX=0;exitY=0.67;entryX=0;entryY=0.37;rounded=0;fontSize=12;startSize=8;endSize=8;" edge="1" parent="1" source="hOLa1W9hkMqsPNJhcazM-5" target="hOLa1W9hkMqsPNJhcazM-6">
          <mxGeometry relative="1" as="geometry">
            <Array as="points">
              <mxPoint x="1036" y="737" />
            </Array>
          </mxGeometry>
        </mxCell>
        <mxCell id="hOLa1W9hkMqsPNJhcazM-39" value="Tidak" style="curved=1;startArrow=none;endArrow=block;exitX=0.6;exitY=0;entryX=0.58;entryY=1.01;rounded=0;fontSize=12;startSize=8;endSize=8;" edge="1" parent="1" source="hOLa1W9hkMqsPNJhcazM-6" target="hOLa1W9hkMqsPNJhcazM-5">
          <mxGeometry relative="1" as="geometry">
            <Array as="points">
              <mxPoint x="1436" y="737" />
            </Array>
          </mxGeometry>
        </mxCell>
        <mxCell id="hOLa1W9hkMqsPNJhcazM-40" value="Ya" style="curved=1;startArrow=none;endArrow=block;exitX=0.5;exitY=1;entryX=0.5;entryY=0;rounded=0;fontSize=12;startSize=8;endSize=8;" edge="1" parent="1" source="hOLa1W9hkMqsPNJhcazM-6" target="hOLa1W9hkMqsPNJhcazM-7">
          <mxGeometry relative="1" as="geometry">
            <Array as="points" />
          </mxGeometry>
        </mxCell>
        <mxCell id="hOLa1W9hkMqsPNJhcazM-41" value="" style="curved=1;startArrow=none;endArrow=block;exitX=0;exitY=0.62;entryX=0.5;entryY=0;rounded=0;fontSize=12;startSize=8;endSize=8;" edge="1" parent="1" source="hOLa1W9hkMqsPNJhcazM-7" target="hOLa1W9hkMqsPNJhcazM-8">
          <mxGeometry relative="1" as="geometry">
            <Array as="points">
              <mxPoint x="799" y="1051" />
            </Array>
          </mxGeometry>
        </mxCell>
        <mxCell id="hOLa1W9hkMqsPNJhcazM-42" value="1" style="curved=1;startArrow=none;endArrow=block;exitX=0;exitY=0.58;entryX=0.5;entryY=0;rounded=0;fontSize=12;startSize=8;endSize=8;" edge="1" parent="1" source="hOLa1W9hkMqsPNJhcazM-8" target="hOLa1W9hkMqsPNJhcazM-9">
          <mxGeometry relative="1" as="geometry">
            <Array as="points">
              <mxPoint x="172" y="1234" />
            </Array>
          </mxGeometry>
        </mxCell>
        <mxCell id="hOLa1W9hkMqsPNJhcazM-43" value="2" style="curved=1;startArrow=none;endArrow=block;exitX=0;exitY=0.63;entryX=0.5;entryY=0;rounded=0;fontSize=12;startSize=8;endSize=8;" edge="1" parent="1" source="hOLa1W9hkMqsPNJhcazM-8" target="hOLa1W9hkMqsPNJhcazM-10">
          <mxGeometry relative="1" as="geometry">
            <Array as="points">
              <mxPoint x="426" y="1234" />
            </Array>
          </mxGeometry>
        </mxCell>
        <mxCell id="hOLa1W9hkMqsPNJhcazM-44" value="3" style="curved=1;startArrow=none;endArrow=block;exitX=0.99;exitY=0.69;entryX=0.5;entryY=0;rounded=0;fontSize=12;startSize=8;endSize=8;" edge="1" parent="1" source="hOLa1W9hkMqsPNJhcazM-8" target="hOLa1W9hkMqsPNJhcazM-11">
          <mxGeometry relative="1" as="geometry">
            <Array as="points">
              <mxPoint x="1049" y="1234" />
            </Array>
          </mxGeometry>
        </mxCell>
        <mxCell id="hOLa1W9hkMqsPNJhcazM-45" value="4" style="curved=1;startArrow=none;endArrow=block;exitX=0.99;exitY=0.55;entryX=0.5;entryY=0;rounded=0;fontSize=12;startSize=8;endSize=8;" edge="1" parent="1" source="hOLa1W9hkMqsPNJhcazM-8" target="hOLa1W9hkMqsPNJhcazM-12">
          <mxGeometry relative="1" as="geometry">
            <Array as="points">
              <mxPoint x="1732" y="1234" />
            </Array>
          </mxGeometry>
        </mxCell>
        <mxCell id="hOLa1W9hkMqsPNJhcazM-46" value="5" style="curved=1;startArrow=none;endArrow=block;exitX=0.5;exitY=1;entryX=0.5;entryY=0;rounded=0;fontSize=12;startSize=8;endSize=8;" edge="1" parent="1" source="hOLa1W9hkMqsPNJhcazM-8" target="hOLa1W9hkMqsPNJhcazM-13">
          <mxGeometry relative="1" as="geometry">
            <Array as="points" />
          </mxGeometry>
        </mxCell>
        <mxCell id="hOLa1W9hkMqsPNJhcazM-47" value="" style="curved=1;startArrow=none;endArrow=block;exitX=0.5;exitY=1.01;entryX=0.5;entryY=0;rounded=0;fontSize=12;startSize=8;endSize=8;" edge="1" parent="1" source="hOLa1W9hkMqsPNJhcazM-9" target="hOLa1W9hkMqsPNJhcazM-14">
          <mxGeometry relative="1" as="geometry">
            <Array as="points" />
          </mxGeometry>
        </mxCell>
        <mxCell id="hOLa1W9hkMqsPNJhcazM-48" value="Ya" style="curved=1;startArrow=none;endArrow=block;exitX=0.38;exitY=1;entryX=0.5;entryY=0.01;rounded=0;fontSize=12;startSize=8;endSize=8;" edge="1" parent="1" source="hOLa1W9hkMqsPNJhcazM-14" target="hOLa1W9hkMqsPNJhcazM-15">
          <mxGeometry relative="1" as="geometry">
            <Array as="points">
              <mxPoint x="146" y="1552" />
            </Array>
          </mxGeometry>
        </mxCell>
        <mxCell id="hOLa1W9hkMqsPNJhcazM-49" value="" style="curved=1;startArrow=none;endArrow=block;exitX=0.5;exitY=1.02;entryX=0.11;entryY=0.01;rounded=0;fontSize=12;startSize=8;endSize=8;" edge="1" parent="1" source="hOLa1W9hkMqsPNJhcazM-15" target="hOLa1W9hkMqsPNJhcazM-16">
          <mxGeometry relative="1" as="geometry">
            <Array as="points">
              <mxPoint x="146" y="1662" />
            </Array>
          </mxGeometry>
        </mxCell>
        <mxCell id="hOLa1W9hkMqsPNJhcazM-50" value="" style="curved=1;startArrow=none;endArrow=block;exitX=0.75;exitY=0.01;entryX=0;entryY=0.61;rounded=0;fontSize=12;startSize=8;endSize=8;" edge="1" parent="1" source="hOLa1W9hkMqsPNJhcazM-16" target="hOLa1W9hkMqsPNJhcazM-7">
          <mxGeometry relative="1" as="geometry">
            <Array as="points">
              <mxPoint x="704" y="1662" />
              <mxPoint x="704" y="1051" />
            </Array>
          </mxGeometry>
        </mxCell>
        <mxCell id="hOLa1W9hkMqsPNJhcazM-51" value="Tidak" style="curved=1;startArrow=none;endArrow=block;exitX=1.01;exitY=0.83;entryX=0;entryY=0.17;rounded=0;fontSize=12;startSize=8;endSize=8;" edge="1" parent="1" source="hOLa1W9hkMqsPNJhcazM-14" target="hOLa1W9hkMqsPNJhcazM-17">
          <mxGeometry relative="1" as="geometry">
            <Array as="points">
              <mxPoint x="336" y="1552" />
            </Array>
          </mxGeometry>
        </mxCell>
        <mxCell id="hOLa1W9hkMqsPNJhcazM-52" value="" style="curved=1;startArrow=none;endArrow=block;exitX=0.63;exitY=0.01;entryX=0;entryY=0.6;rounded=0;fontSize=12;startSize=8;endSize=8;" edge="1" parent="1" source="hOLa1W9hkMqsPNJhcazM-17" target="hOLa1W9hkMqsPNJhcazM-7">
          <mxGeometry relative="1" as="geometry">
            <Array as="points">
              <mxPoint x="641" y="1552" />
              <mxPoint x="641" y="1051" />
            </Array>
          </mxGeometry>
        </mxCell>
        <mxCell id="hOLa1W9hkMqsPNJhcazM-53" value="" style="curved=1;startArrow=none;endArrow=block;exitX=0.5;exitY=1.01;entryX=0.37;entryY=0;rounded=0;fontSize=12;startSize=8;endSize=8;" edge="1" parent="1" source="hOLa1W9hkMqsPNJhcazM-10" target="hOLa1W9hkMqsPNJhcazM-18">
          <mxGeometry relative="1" as="geometry">
            <Array as="points">
              <mxPoint x="426" y="1344" />
            </Array>
          </mxGeometry>
        </mxCell>
        <mxCell id="hOLa1W9hkMqsPNJhcazM-54" value="" style="curved=1;startArrow=none;endArrow=block;exitX=0.63;exitY=0;entryX=0;entryY=0.59;rounded=0;fontSize=12;startSize=8;endSize=8;" edge="1" parent="1" source="hOLa1W9hkMqsPNJhcazM-18" target="hOLa1W9hkMqsPNJhcazM-7">
          <mxGeometry relative="1" as="geometry">
            <Array as="points">
              <mxPoint x="567" y="1344" />
              <mxPoint x="567" y="1051" />
            </Array>
          </mxGeometry>
        </mxCell>
        <mxCell id="hOLa1W9hkMqsPNJhcazM-55" value="" style="curved=1;startArrow=none;endArrow=block;exitX=0.5;exitY=1.01;entryX=0.5;entryY=0;rounded=0;fontSize=12;startSize=8;endSize=8;" edge="1" parent="1" source="hOLa1W9hkMqsPNJhcazM-11" target="hOLa1W9hkMqsPNJhcazM-19">
          <mxGeometry relative="1" as="geometry">
            <Array as="points" />
          </mxGeometry>
        </mxCell>
        <mxCell id="hOLa1W9hkMqsPNJhcazM-56" value="Ya" style="curved=1;startArrow=none;endArrow=block;exitX=1;exitY=0.68;entryX=0.5;entryY=0.01;rounded=0;fontSize=12;startSize=8;endSize=8;" edge="1" parent="1" source="hOLa1W9hkMqsPNJhcazM-19" target="hOLa1W9hkMqsPNJhcazM-20">
          <mxGeometry relative="1" as="geometry">
            <Array as="points">
              <mxPoint x="1350" y="1552" />
            </Array>
          </mxGeometry>
        </mxCell>
        <mxCell id="hOLa1W9hkMqsPNJhcazM-57" value="" style="curved=1;startArrow=none;endArrow=block;exitX=0.5;exitY=1.02;entryX=0.5;entryY=0;rounded=0;fontSize=12;startSize=8;endSize=8;" edge="1" parent="1" source="hOLa1W9hkMqsPNJhcazM-20" target="hOLa1W9hkMqsPNJhcazM-21">
          <mxGeometry relative="1" as="geometry">
            <Array as="points" />
          </mxGeometry>
        </mxCell>
        <mxCell id="hOLa1W9hkMqsPNJhcazM-58" value="Ya" style="curved=1;startArrow=none;endArrow=block;exitX=0.38;exitY=1;entryX=0.5;entryY=0.01;rounded=0;fontSize=12;startSize=8;endSize=8;" edge="1" parent="1" source="hOLa1W9hkMqsPNJhcazM-21" target="hOLa1W9hkMqsPNJhcazM-22">
          <mxGeometry relative="1" as="geometry">
            <Array as="points">
              <mxPoint x="1323" y="1864" />
            </Array>
          </mxGeometry>
        </mxCell>
        <mxCell id="hOLa1W9hkMqsPNJhcazM-59" value="" style="curved=1;startArrow=none;endArrow=block;exitX=0.5;exitY=1.02;entryX=0;entryY=0.33;rounded=0;fontSize=12;startSize=8;endSize=8;" edge="1" parent="1" source="hOLa1W9hkMqsPNJhcazM-22" target="hOLa1W9hkMqsPNJhcazM-23">
          <mxGeometry relative="1" as="geometry">
            <Array as="points">
              <mxPoint x="1323" y="1974" />
            </Array>
          </mxGeometry>
        </mxCell>
        <mxCell id="hOLa1W9hkMqsPNJhcazM-60" value="" style="curved=1;startArrow=none;endArrow=block;exitX=1;exitY=0.31;entryX=1;entryY=0.58;rounded=0;fontSize=12;startSize=8;endSize=8;" edge="1" parent="1" source="hOLa1W9hkMqsPNJhcazM-23" target="hOLa1W9hkMqsPNJhcazM-7">
          <mxGeometry relative="1" as="geometry">
            <Array as="points">
              <mxPoint x="2399" y="1974" />
              <mxPoint x="2399" y="1051" />
            </Array>
          </mxGeometry>
        </mxCell>
        <mxCell id="hOLa1W9hkMqsPNJhcazM-61" value="Tidak" style="curved=1;startArrow=none;endArrow=block;exitX=1;exitY=0.73;entryX=0;entryY=0.15;rounded=0;fontSize=12;startSize=8;endSize=8;" edge="1" parent="1" source="hOLa1W9hkMqsPNJhcazM-21" target="hOLa1W9hkMqsPNJhcazM-24">
          <mxGeometry relative="1" as="geometry">
            <Array as="points">
              <mxPoint x="1583" y="1864" />
            </Array>
          </mxGeometry>
        </mxCell>
        <mxCell id="hOLa1W9hkMqsPNJhcazM-62" value="" style="curved=1;startArrow=none;endArrow=block;exitX=0.59;exitY=0.01;entryX=1;entryY=0.67;rounded=0;fontSize=12;startSize=8;endSize=8;" edge="1" parent="1" source="hOLa1W9hkMqsPNJhcazM-24" target="hOLa1W9hkMqsPNJhcazM-7">
          <mxGeometry relative="1" as="geometry">
            <Array as="points">
              <mxPoint x="1858" y="1864" />
              <mxPoint x="1858" y="1051" />
            </Array>
          </mxGeometry>
        </mxCell>
        <mxCell id="hOLa1W9hkMqsPNJhcazM-63" value="Tidak" style="curved=1;startArrow=none;endArrow=block;exitX=0.5;exitY=1;entryX=0.31;entryY=0.01;rounded=0;fontSize=12;startSize=8;endSize=8;" edge="1" parent="1" source="hOLa1W9hkMqsPNJhcazM-19" target="hOLa1W9hkMqsPNJhcazM-25">
          <mxGeometry relative="1" as="geometry">
            <Array as="points">
              <mxPoint x="1049" y="1552" />
            </Array>
          </mxGeometry>
        </mxCell>
        <mxCell id="hOLa1W9hkMqsPNJhcazM-64" value="" style="curved=1;startArrow=none;endArrow=block;exitX=0.68;exitY=0.01;entryX=0;entryY=0.83;rounded=0;fontSize=12;startSize=8;endSize=8;" edge="1" parent="1" source="hOLa1W9hkMqsPNJhcazM-25" target="hOLa1W9hkMqsPNJhcazM-7">
          <mxGeometry relative="1" as="geometry">
            <Array as="points">
              <mxPoint x="1180" y="1552" />
              <mxPoint x="1180" y="1051" />
            </Array>
          </mxGeometry>
        </mxCell>
        <mxCell id="hOLa1W9hkMqsPNJhcazM-65" value="" style="curved=1;startArrow=none;endArrow=block;exitX=0.5;exitY=1.01;entryX=0.5;entryY=0;rounded=0;fontSize=12;startSize=8;endSize=8;" edge="1" parent="1" source="hOLa1W9hkMqsPNJhcazM-12" target="hOLa1W9hkMqsPNJhcazM-26">
          <mxGeometry relative="1" as="geometry">
            <Array as="points" />
          </mxGeometry>
        </mxCell>
        <mxCell id="hOLa1W9hkMqsPNJhcazM-66" value="Ya" style="curved=1;startArrow=none;endArrow=block;exitX=1;exitY=0.7;entryX=0.5;entryY=0.01;rounded=0;fontSize=12;startSize=8;endSize=8;" edge="1" parent="1" source="hOLa1W9hkMqsPNJhcazM-26" target="hOLa1W9hkMqsPNJhcazM-27">
          <mxGeometry relative="1" as="geometry">
            <Array as="points">
              <mxPoint x="2007" y="1552" />
            </Array>
          </mxGeometry>
        </mxCell>
        <mxCell id="hOLa1W9hkMqsPNJhcazM-67" value="" style="curved=1;startArrow=none;endArrow=block;exitX=0.5;exitY=1.02;entryX=0.5;entryY=0;rounded=0;fontSize=12;startSize=8;endSize=8;" edge="1" parent="1" source="hOLa1W9hkMqsPNJhcazM-27" target="hOLa1W9hkMqsPNJhcazM-28">
          <mxGeometry relative="1" as="geometry">
            <Array as="points" />
          </mxGeometry>
        </mxCell>
        <mxCell id="hOLa1W9hkMqsPNJhcazM-68" value="Ya" style="curved=1;startArrow=none;endArrow=block;exitX=0.5;exitY=1;entryX=0.34;entryY=0.01;rounded=0;fontSize=12;startSize=8;endSize=8;" edge="1" parent="1" source="hOLa1W9hkMqsPNJhcazM-28" target="hOLa1W9hkMqsPNJhcazM-29">
          <mxGeometry relative="1" as="geometry">
            <Array as="points">
              <mxPoint x="2007" y="1864" />
            </Array>
          </mxGeometry>
        </mxCell>
        <mxCell id="hOLa1W9hkMqsPNJhcazM-69" value="" style="curved=1;startArrow=none;endArrow=block;exitX=0.69;exitY=0.01;entryX=1;entryY=0.6;rounded=0;fontSize=12;startSize=8;endSize=8;" edge="1" parent="1" source="hOLa1W9hkMqsPNJhcazM-29" target="hOLa1W9hkMqsPNJhcazM-7">
          <mxGeometry relative="1" as="geometry">
            <Array as="points">
              <mxPoint x="2166" y="1864" />
              <mxPoint x="2166" y="1051" />
            </Array>
          </mxGeometry>
        </mxCell>
        <mxCell id="hOLa1W9hkMqsPNJhcazM-70" value="Tidak" style="curved=1;startArrow=none;endArrow=block;exitX=1;exitY=0.77;entryX=0.26;entryY=0.01;rounded=0;fontSize=12;startSize=8;endSize=8;" edge="1" parent="1" source="hOLa1W9hkMqsPNJhcazM-28" target="hOLa1W9hkMqsPNJhcazM-30">
          <mxGeometry relative="1" as="geometry">
            <Array as="points">
              <mxPoint x="2208" y="1864" />
            </Array>
          </mxGeometry>
        </mxCell>
        <mxCell id="hOLa1W9hkMqsPNJhcazM-71" value="" style="curved=1;startArrow=none;endArrow=block;exitX=0.62;exitY=0.01;entryX=1;entryY=0.58;rounded=0;fontSize=12;startSize=8;endSize=8;" edge="1" parent="1" source="hOLa1W9hkMqsPNJhcazM-30" target="hOLa1W9hkMqsPNJhcazM-7">
          <mxGeometry relative="1" as="geometry">
            <Array as="points">
              <mxPoint x="2336" y="1864" />
              <mxPoint x="2336" y="1051" />
            </Array>
          </mxGeometry>
        </mxCell>
        <mxCell id="hOLa1W9hkMqsPNJhcazM-72" value="Tidak" style="curved=1;startArrow=none;endArrow=block;exitX=0;exitY=0.73;entryX=0.24;entryY=0.01;rounded=0;fontSize=12;startSize=8;endSize=8;" edge="1" parent="1" source="hOLa1W9hkMqsPNJhcazM-26" target="hOLa1W9hkMqsPNJhcazM-31">
          <mxGeometry relative="1" as="geometry">
            <Array as="points">
              <mxPoint x="1493" y="1552" />
            </Array>
          </mxGeometry>
        </mxCell>
        <mxCell id="hOLa1W9hkMqsPNJhcazM-73" value="" style="curved=1;startArrow=none;endArrow=block;exitX=0.56;exitY=0.01;entryX=1;entryY=0.9;rounded=0;fontSize=12;startSize=8;endSize=8;" edge="1" parent="1" source="hOLa1W9hkMqsPNJhcazM-31" target="hOLa1W9hkMqsPNJhcazM-7">
          <mxGeometry relative="1" as="geometry">
            <Array as="points">
              <mxPoint x="1606" y="1552" />
              <mxPoint x="1606" y="1051" />
            </Array>
          </mxGeometry>
        </mxCell>
        <mxCell id="hOLa1W9hkMqsPNJhcazM-74" value="" style="curved=1;startArrow=none;endArrow=block;exitX=0.5;exitY=1.01;entryX=0.39;entryY=0;rounded=0;fontSize=12;startSize=8;endSize=8;" edge="1" parent="1" source="hOLa1W9hkMqsPNJhcazM-13" target="hOLa1W9hkMqsPNJhcazM-32">
          <mxGeometry relative="1" as="geometry">
            <Array as="points">
              <mxPoint x="799" y="1344" />
            </Array>
          </mxGeometry>
        </mxCell>
        <mxCell id="hOLa1W9hkMqsPNJhcazM-75" value="" style="curved=1;startArrow=none;endArrow=block;exitX=0.61;exitY=0;entryX=0;entryY=0.63;rounded=0;fontSize=12;startSize=8;endSize=8;" edge="1" parent="1" source="hOLa1W9hkMqsPNJhcazM-32" target="hOLa1W9hkMqsPNJhcazM-1">
          <mxGeometry relative="1" as="geometry">
            <Array as="points">
              <mxPoint x="895" y="1344" />
              <mxPoint x="895" y="93" />
            </Array>
          </mxGeometry>
        </mxCell>
      </root>
    </mxGraphModel>
  </diagram>
</mxfile>
